<svg width="22" height="22" viewBox="0 0 22 22" fill="none" xmlns="http://www.w3.org/2000/svg">
<path d="M10.2764 21.9742V19.0412C7.77909 18.8206 5.52499 17.4501 4.18117 15.332C2.83592 13.2139 2.554 10.5901 3.41554 8.23309C4.27851 5.87724 6.1876 4.05688 8.58055 3.30786C10.9734 2.56028 13.5796 2.96845 15.6287 4.41488C17.6781 5.8599 18.9389 8.17865 19.0376 10.6849C19.1378 13.1925 18.0659 15.6042 16.1382 17.2082V13.201H13.2072V20.5335C13.2072 20.923 13.3618 21.2954 13.6366 21.5704C13.9114 21.8453 14.2834 22 14.6727 22H22V19.067H18.4608C20.9553 16.7556 22.2388 13.4188 21.9399 10.029C21.6393 6.64058 19.7889 3.58155 16.928 1.74256C14.0672 -0.0948512 10.5181 -0.504443 7.31385 0.634109C4.11101 1.77123 1.61357 4.32895 0.55038 7.56147C-0.511492 10.7923 -0.0206355 14.3341 1.88274 17.1538C3.78469 19.9737 6.88436 21.7538 10.2762 21.9742L10.2764 21.9742Z" fill="#9A9A9A"/>
</svg>
